# xmcd CD database file
# Copyright (C) 1995-1998 Ti Kan
#
# Track frame offsets:
#	200
#	12015
#	26685
#	50705
#	68547
#	89020
#	106700
#	127087
#	146572
#	162790
#	183132
#	200770
#	217962
#
# Disc length: 3316 seconds
#
# Revision: 1
# Processed by: cddbd v1.4b41PL1 Copyright (c) Steve Scherf et al.
# Submitted via: CDex 1.30
#
DISCID=b10cf20d
DTITLE=Marva Wright - Heartbrakin'
DYEAR=1991
DGENRE=Blues
TTITLE0=Heartbreakin'  Woman
TTITLE1=The Sky Is Crying
TTITLE2=You Don't Miss Your Water
TTITLE3=Ain't Nothin' You Can Do
TTITLE4=Nothing Takes The Place Of You
TTITLE5=Feel Like Breaking Up Somebody's Home
TTITLE6=Walk Aound Heaven All Day
TTITLE7=Bluesiana Mama
TTITLE8=Let's Make Love
TTITLE9=St James Infirmary
TTITLE10=Built For Comfort
TTITLE11=Born Under A Bad Sign
TTITLE12=Since You Came Into My Life
EXTD=YEAR: 1991  ID3G:   0
EXTT0=
EXTT1=
EXTT2=
EXTT3=
EXTT4=
EXTT5=
EXTT6=
EXTT7=
EXTT8=
EXTT9=
EXTT10=
EXTT11=
EXTT12=
PLAYORDER=
